<svg width="220" height="40" viewBox="0 0 220 40" fill="none" xmlns="http://www.w3.org/2000/svg">
<g clip-path="url(#clip0_32_239)">
<path d="M62.3079 31.5232C61.9823 31.4265 61.6891 31.2954 61.6891 31.2954C61.3937 31.1643 61.1328 30.8398 61.1328 30.8398L60.8719 30.2229L62.6659 9.84401C63.22 8.73931 64.2959 8.57597 64.2959 8.57597H85.6295C87.0978 8.73932 88.37 9.29166 88.37 9.29166C89.6422 9.84616 90.5887 11.0476 90.5887 11.0476C91.1752 11.9266 91.4361 12.868 91.4361 12.868C91.697 13.8115 91.697 14.914 91.697 14.914L90.8496 24.8262C90.6534 26.2899 89.9354 27.6202 89.9354 27.6202C89.2195 28.9527 87.9797 29.9607 87.9797 29.9607C87.0655 30.6743 86.0564 31.0332 86.0564 31.0332C85.0451 31.3899 83.87 31.5211 83.87 31.5211H62.3079V31.5232ZM192.625 31.2954C191.092 31.8155 190.374 30.8398 190.374 30.8398C189.787 29.4428 190.667 28.5981 190.667 28.5981L203.031 19.4962L193.44 11.5011C193.015 10.8842 193.147 9.94073 193.147 9.94073C193.929 8.18482 195.756 8.64045 195.756 8.64045L205.998 17.319L217.676 8.70708C218.948 8.25144 219.567 8.99937 219.567 8.99937C220.448 9.91064 219.696 11.1765 219.696 11.1765L208.572 19.5306L219.304 28.6948C220.022 29.8984 218.913 31.0998 218.913 31.0998C218.096 31.6844 217.087 31.3921 217.087 31.3921L205.637 21.7077L192.623 31.2954H192.625ZM187.633 31.6844C187.305 31.6199 186.98 31.4888 186.98 31.4888C186.654 31.3577 186.393 31.0998 186.393 31.0998L182.969 24.9896H167.343L162.712 31.2309C161.079 32.14 160.264 31.0031 160.264 31.0031C160.004 30.6786 159.971 30.3218 159.971 30.3218C159.939 29.965 160.036 29.5416 160.036 29.5416L165.092 22.5201C165.582 21.4799 166.757 21.6755 166.757 21.6755L181.011 21.6432L174.912 11.2088C174.457 9.71506 175.563 8.90266 175.563 8.90266C176.673 8.02362 177.814 9.09823 177.814 9.09823L189.328 28.8926C189.785 29.8017 189.231 30.7774 189.231 30.7774C188.58 31.4265 188.284 31.5253 188.284 31.5253C187.991 31.6221 187.633 31.6865 187.633 31.6865V31.6844ZM130.515 31.5232C129.832 31.4265 129.34 30.8398 129.34 30.8398L129.079 30.2229L130.873 9.84401C131.46 8.05586 133.157 8.64045 133.157 8.64045L144.638 20.8609L158.078 8.3804L158.339 8.31592H159.219L159.937 8.73931C160.329 9.25943 160.359 9.84401 160.359 9.84401L158.598 29.8962C158.207 31.4888 156.575 31.5211 156.575 31.5211C155.892 31.4243 155.402 30.8376 155.402 30.8376L155.109 30.0574L156.513 14.3273L144.867 24.9552C144.377 25.2475 143.92 24.9874 143.92 24.9874L133.872 14.4906L133.808 14.5873L132.439 30.2208C132.113 30.9021 131.395 31.3577 131.395 31.3577L130.513 31.5211L130.515 31.5232ZM124.221 31.5232C123.896 31.4265 123.568 31.2631 123.568 31.2631C123.242 31.0998 123.012 30.743 123.012 30.743L122.783 30.2229L124.579 9.84401L125.069 9.09609C125.362 8.83603 125.754 8.70708 125.754 8.70708C126.145 8.57597 126.472 8.57597 126.472 8.57597C126.83 8.6426 127.091 8.77155 127.091 8.77155C127.352 8.90266 127.613 9.25943 127.613 9.25943L127.939 9.94288L126.145 30.1584C125.687 31.4265 124.221 31.5232 124.221 31.5232ZM119.098 31.6844C118.773 31.6199 118.447 31.4888 118.447 31.4888C118.121 31.3577 117.86 31.0998 117.86 31.0998L114.436 24.9896H98.8125L94.181 31.2309C92.5487 32.14 91.7337 31.0031 91.7337 31.0031C91.4728 30.6786 91.4383 30.3218 91.4383 30.3218C91.4059 29.965 91.5051 29.5416 91.5051 29.5416L96.5614 22.5201C97.0509 21.4799 98.226 21.6755 98.226 21.6755L112.481 21.6432L106.381 11.2088C105.924 9.71506 107.032 8.90266 107.032 8.90266C108.142 8.02362 109.283 9.09823 109.283 9.09823L120.797 28.8926C121.254 29.8017 120.698 30.7774 120.698 30.7774C120.047 31.4265 119.754 31.5253 119.754 31.5253C119.46 31.6221 119.1 31.6865 119.1 31.6865L119.098 31.6844ZM85.858 27.4913C86.5092 26.9712 86.8693 26.3866 86.8693 26.3866C87.2272 25.802 87.3587 25.0863 87.3587 25.0863L88.2406 14.8474C88.2406 14.3273 88.0768 13.8072 88.0768 13.8072C87.915 13.2871 87.4256 12.8637 87.4256 12.8637C87.0008 12.5069 86.5113 12.3113 86.5113 12.3113C86.0219 12.1157 85.5001 11.9846 85.5001 11.9846H65.829L64.4275 28.0737H84.2603L85.858 27.4891V27.4913Z" fill="#F2F5F6"/>
<path d="M36.7418 0V6.79799L0 14.9156V14.3546L36.7418 0ZM36.7418 17.9503V11.1523L0 20.538V21.0882L36.7418 17.9503ZM36.7418 29.6034V22.8054L0 25.4833V26.0357L36.7418 29.6034ZM36.7418 39.9991V33.2012L0 30.3577V30.9079L36.7418 39.9991Z" fill="#F2F5F6"/>
<path d="M48.6527 16.5022L36.7418 6.79847V0.000488281L48.6527 15.2277V16.5022ZM36.7418 17.9508L48.6527 20.0635V18.8878L36.7418 11.1506V17.9486V17.9508ZM36.7418 29.6039L48.6527 24.637V23.4614L36.7418 22.8059V29.6039ZM36.7418 39.9996L48.6527 28.6926V27.517L36.7418 33.2016V39.9996Z" fill="#00A0E3"/>
</g>
<defs>
<clipPath id="clip0_32_239">
<rect width="220" height="40" fill="white"/>
</clipPath>
</defs>
</svg>
