<svg width="30" height="30" viewBox="0 0 30 30" fill="none" xmlns="http://www.w3.org/2000/svg">
<path d="M3.75 26.25V20.3125L14.9375 9.125L13.125 7.375L14.9375 5.625L17.3125 8L21.1875 4.125C21.4167 3.89583 21.7083 3.78125 22.0625 3.78125C22.4167 3.78125 22.7083 3.89583 22.9375 4.125L25.875 7.0625C26.1042 7.29167 26.2188 7.58333 26.2188 7.9375C26.2188 8.29167 26.1042 8.58333 25.875 8.8125L22.0312 12.6562L24.4062 15.0937L22.625 16.875L20.875 15.0625L9.6875 26.25H3.75ZM6.25 23.75H8.6875L19.0625 13.3125L16.6875 10.9375L6.25 21.3125V23.75ZM20.2188 10.9375L23.2188 7.9375L22.0625 6.78125L19.0625 9.78125L20.2188 10.9375ZM20.2188 10.9375L19.0625 9.78125L20.2188 10.9375Z" fill="#456F8F"/>
</svg>
