<svg width="35" height="35" viewBox="0 0 35 35" fill="none" xmlns="http://www.w3.org/2000/svg">
<path d="M0.625 34.375V26.4062L9.0625 17.9688L1.79688 10.6563C1.42188 10.2813 1.14875 9.85938 0.9775 9.39063C0.805 8.92188 0.71875 8.45313 0.71875 7.98438C0.71875 7.51563 0.805 7.055 0.9775 6.6025C1.14875 6.14875 1.42188 5.73438 1.79688 5.35938L5.35938 1.79688C5.73438 1.42188 6.15625 1.14813 6.625 0.975625C7.09375 0.804375 7.5625 0.71875 8.03125 0.71875C8.5 0.71875 8.96125 0.804375 9.415 0.975625C9.8675 1.14813 10.2813 1.42188 10.6563 1.79688L17.9688 9.10938L26.3594 0.671875C26.5469 0.484375 26.75 0.34375 26.9687 0.25C27.1875 0.15625 27.4219 0.109375 27.6719 0.109375C27.9219 0.109375 28.1637 0.15625 28.3975 0.25C28.6325 0.34375 28.8438 0.484375 29.0312 0.671875L34.3281 5.96875C34.5156 6.15625 34.6562 6.35938 34.75 6.57813C34.8438 6.79688 34.8906 7.03125 34.8906 7.28125C34.8906 7.53125 34.8438 7.77375 34.75 8.00875C34.6562 8.2425 34.5156 8.45312 34.3281 8.64062L25.9375 17.0312L33.2031 24.3437C33.5781 24.7187 33.8512 25.1406 34.0225 25.6094C34.195 26.0781 34.2812 26.5469 34.2812 27.0156C34.2812 27.4844 34.195 27.945 34.0225 28.3975C33.8512 28.8512 33.5781 29.2656 33.2031 29.6406L29.6406 33.2031C29.2656 33.5781 28.8512 33.8512 28.3975 34.0225C27.945 34.195 27.4844 34.2812 27.0156 34.2812C26.5469 34.2812 26.0781 34.195 25.6094 34.0225C25.1406 33.8512 24.7188 33.5781 24.3438 33.2031L17.0312 25.8906L8.59375 34.375H0.625ZM11.7344 15.2969L15.2969 11.7344L13.0469 9.48438L10.7969 11.6875L8.17188 9.0625L10.375 6.8125L7.98438 4.46875L4.46875 8.03125L11.7344 15.2969ZM26.9687 30.5312L30.5313 26.9687L28.1406 24.625L25.9375 26.8281L23.2656 24.2031L25.5156 21.9531L23.2188 19.7031L19.6562 23.2656L26.9687 30.5312ZM4.375 30.625H7L25.0469 12.625L22.375 9.95312L4.375 28V30.625ZM27.6719 9.95312L30.3438 7.28125L27.6719 4.65625L25.0469 7.28125L27.6719 9.95312Z" fill="#456F8F"/>
</svg>
