<svg width="35" height="29" viewBox="0 0 35 29" fill="none" xmlns="http://www.w3.org/2000/svg">
<path d="M3.4375 28.5625C2.65625 28.5625 1.9925 28.2887 1.44625 27.7413C0.89875 27.195 0.625 26.5312 0.625 25.75C0.625 24.9688 0.89875 24.305 1.44625 23.7587C1.9925 23.2113 2.65625 22.9375 3.4375 22.9375C4.21875 22.9375 4.8825 23.2113 5.42875 23.7587C5.97625 24.305 6.25 24.9688 6.25 25.75C6.25 26.5312 5.97625 27.195 5.42875 27.7413C4.8825 28.2887 4.21875 28.5625 3.4375 28.5625ZM10 27.625V23.875H34.375V27.625H10ZM3.4375 17.3125C2.65625 17.3125 1.9925 17.0387 1.44625 16.4913C0.89875 15.945 0.625 15.2812 0.625 14.5C0.625 13.7188 0.89875 13.055 1.44625 12.5087C1.9925 11.9612 2.65625 11.6875 3.4375 11.6875C4.21875 11.6875 4.8825 11.9612 5.42875 12.5087C5.97625 13.055 6.25 13.7188 6.25 14.5C6.25 15.2812 5.97625 15.945 5.42875 16.4913C4.8825 17.0387 4.21875 17.3125 3.4375 17.3125ZM10 16.375V12.625H34.375V16.375H10ZM3.4375 6.0625C2.65625 6.0625 1.9925 5.78875 1.44625 5.24125C0.89875 4.695 0.625 4.03125 0.625 3.25C0.625 2.46875 0.89875 1.805 1.44625 1.25875C1.9925 0.71125 2.65625 0.4375 3.4375 0.4375C4.21875 0.4375 4.8825 0.71125 5.42875 1.25875C5.97625 1.805 6.25 2.46875 6.25 3.25C6.25 4.03125 5.97625 4.695 5.42875 5.24125C4.8825 5.78875 4.21875 6.0625 3.4375 6.0625ZM10 5.125V1.375H34.375V5.125H10Z" fill="#456F8F"/>
</svg>
