<svg width="27" height="23" viewBox="0 0 27 23" fill="none" xmlns="http://www.w3.org/2000/svg">
<path d="M2.5625 22.4375C1.95486 22.4375 1.43861 22.2246 1.01375 21.7988C0.587917 21.3739 0.375 20.8576 0.375 20.25C0.375 19.6424 0.587917 19.1261 1.01375 18.7013C1.43861 18.2754 1.95486 18.0625 2.5625 18.0625C3.17014 18.0625 3.68639 18.2754 4.11125 18.7013C4.53708 19.1261 4.75 19.6424 4.75 20.25C4.75 20.8576 4.53708 21.3739 4.11125 21.7988C3.68639 22.2246 3.17014 22.4375 2.5625 22.4375ZM7.66667 21.7083V18.7917H26.625V21.7083H7.66667ZM2.5625 13.6875C1.95486 13.6875 1.43861 13.4746 1.01375 13.0488C0.587917 12.6239 0.375 12.1076 0.375 11.5C0.375 10.8924 0.587917 10.3761 1.01375 9.95125C1.43861 9.52542 1.95486 9.3125 2.5625 9.3125C3.17014 9.3125 3.68639 9.52542 4.11125 9.95125C4.53708 10.3761 4.75 10.8924 4.75 11.5C4.75 12.1076 4.53708 12.6239 4.11125 13.0488C3.68639 13.4746 3.17014 13.6875 2.5625 13.6875ZM7.66667 12.9583V10.0417H26.625V12.9583H7.66667ZM2.5625 4.9375C1.95486 4.9375 1.43861 4.72458 1.01375 4.29875C0.587917 3.87389 0.375 3.35764 0.375 2.75C0.375 2.14236 0.587917 1.62611 1.01375 1.20125C1.43861 0.775417 1.95486 0.5625 2.5625 0.5625C3.17014 0.5625 3.68639 0.775417 4.11125 1.20125C4.53708 1.62611 4.75 2.14236 4.75 2.75C4.75 3.35764 4.53708 3.87389 4.11125 4.29875C3.68639 4.72458 3.17014 4.9375 2.5625 4.9375ZM7.66667 4.20833V1.29167H26.625V4.20833H7.66667Z" fill="#D5D9DC"/>
</svg>
