<svg width="34" height="35" viewBox="0 0 34 35" fill="none" xmlns="http://www.w3.org/2000/svg">
<path d="M31.25 34.375L19.4375 22.5625C18.5 23.3125 17.4219 23.9062 16.2031 24.3438C14.9844 24.7812 13.6875 25 12.3125 25C8.90625 25 6.02375 23.8206 3.665 21.4619C1.305 19.1019 0.125 16.2188 0.125 12.8125C0.125 9.40625 1.305 6.52313 3.665 4.16313C6.02375 1.80438 8.90625 0.625 12.3125 0.625C15.7188 0.625 18.6019 1.80438 20.9619 4.16313C23.3206 6.52313 24.5 9.40625 24.5 12.8125C24.5 14.1875 24.2812 15.4844 23.8438 16.7031C23.4062 17.9219 22.8125 19 22.0625 19.9375L33.875 31.75L31.25 34.375ZM12.3125 21.25C14.6562 21.25 16.6488 20.43 18.29 18.79C19.93 17.1488 20.75 15.1562 20.75 12.8125C20.75 10.4688 19.93 8.47625 18.29 6.835C16.6488 5.195 14.6562 4.375 12.3125 4.375C9.96875 4.375 7.97625 5.195 6.335 6.835C4.695 8.47625 3.875 10.4688 3.875 12.8125C3.875 15.1562 4.695 17.1488 6.335 18.79C7.97625 20.43 9.96875 21.25 12.3125 21.25Z" fill="#D5D9DC"/>
</svg>
