<svg width="35" height="35" viewBox="0 0 35 35" fill="none" xmlns="http://www.w3.org/2000/svg">
<path d="M0.125 34.375V26.4062L8.5625 17.9688L1.29688 10.6563C0.921875 10.2813 0.64875 9.85938 0.4775 9.39063C0.305 8.92188 0.21875 8.45313 0.21875 7.98438C0.21875 7.51563 0.305 7.055 0.4775 6.6025C0.64875 6.14875 0.921875 5.73438 1.29688 5.35938L4.85938 1.79688C5.23438 1.42188 5.65625 1.14813 6.125 0.975625C6.59375 0.804375 7.0625 0.71875 7.53125 0.71875C8 0.71875 8.46125 0.804375 8.915 0.975625C9.3675 1.14813 9.78125 1.42188 10.1563 1.79688L17.4688 9.10938L25.8594 0.671875C26.0469 0.484375 26.25 0.34375 26.4687 0.25C26.6875 0.15625 26.9219 0.109375 27.1719 0.109375C27.4219 0.109375 27.6637 0.15625 27.8975 0.25C28.1325 0.34375 28.3438 0.484375 28.5312 0.671875L33.8281 5.96875C34.0156 6.15625 34.1562 6.35938 34.25 6.57813C34.3438 6.79688 34.3906 7.03125 34.3906 7.28125C34.3906 7.53125 34.3438 7.77375 34.25 8.00875C34.1562 8.2425 34.0156 8.45312 33.8281 8.64062L25.4375 17.0312L32.7031 24.3437C33.0781 24.7187 33.3512 25.1406 33.5225 25.6094C33.695 26.0781 33.7812 26.5469 33.7812 27.0156C33.7812 27.4844 33.695 27.945 33.5225 28.3975C33.3512 28.8512 33.0781 29.2656 32.7031 29.6406L29.1406 33.2031C28.7656 33.5781 28.3512 33.8512 27.8975 34.0225C27.445 34.195 26.9844 34.2812 26.5156 34.2812C26.0469 34.2812 25.5781 34.195 25.1094 34.0225C24.6406 33.8512 24.2188 33.5781 23.8438 33.2031L16.5312 25.8906L8.09375 34.375H0.125ZM11.2344 15.2969L14.7969 11.7344L12.5469 9.48438L10.2969 11.6875L7.67188 9.0625L9.875 6.8125L7.48438 4.46875L3.96875 8.03125L11.2344 15.2969ZM26.4687 30.5312L30.0313 26.9687L27.6406 24.625L25.4375 26.8281L22.7656 24.2031L25.0156 21.9531L22.7188 19.7031L19.1562 23.2656L26.4687 30.5312ZM3.875 30.625H6.5L24.5469 12.625L21.875 9.95312L3.875 28V30.625ZM27.1719 9.95312L29.8438 7.28125L27.1719 4.65625L24.5469 7.28125L27.1719 9.95312Z" fill="#D5D9DC"/>
</svg>
