<svg width="220" height="40" viewBox="0 0 220 40" fill="none" xmlns="http://www.w3.org/2000/svg">
<g clip-path="url(#clip0_8_3)">
<path d="M62.3079 31.523C61.9823 31.4263 61.6891 31.2952 61.6891 31.2952C61.3937 31.1641 61.1328 30.8396 61.1328 30.8396L60.8719 30.2227L62.6659 9.84383C63.22 8.73913 64.2959 8.57579 64.2959 8.57579H85.6295C87.0978 8.73913 88.37 9.29148 88.37 9.29148C89.6422 9.84598 90.5887 11.0474 90.5887 11.0474C91.1752 11.9264 91.4361 12.8678 91.4361 12.8678C91.697 13.8113 91.697 14.9138 91.697 14.9138L90.8496 24.826C90.6534 26.2897 89.9354 27.62 89.9354 27.62C89.2195 28.9525 87.9797 29.9605 87.9797 29.9605C87.0655 30.6741 86.0564 31.033 86.0564 31.033C85.0451 31.3898 83.87 31.5209 83.87 31.5209H62.3079V31.523ZM192.625 31.2952C191.092 31.8153 190.374 30.8396 190.374 30.8396C189.787 29.4426 190.667 28.5979 190.667 28.5979L203.031 19.496L193.44 11.5009C193.015 10.8841 193.147 9.94055 193.147 9.94055C193.929 8.18463 195.756 8.64027 195.756 8.64027L205.998 17.3188L217.676 8.70689C218.948 8.25126 219.567 8.99919 219.567 8.99919C220.448 9.91046 219.696 11.1763 219.696 11.1763L208.572 19.5304L219.304 28.6946C220.022 29.8982 218.913 31.0996 218.913 31.0996C218.096 31.6842 217.087 31.3919 217.087 31.3919L205.637 21.7075L192.623 31.2952H192.625ZM187.633 31.6842C187.305 31.6197 186.98 31.4886 186.98 31.4886C186.654 31.3575 186.393 31.0996 186.393 31.0996L182.969 24.9894H167.343L162.712 31.2307C161.079 32.1398 160.264 31.0029 160.264 31.0029C160.004 30.6784 159.971 30.3216 159.971 30.3216C159.939 29.9648 160.036 29.5414 160.036 29.5414L165.092 22.5199C165.582 21.4797 166.757 21.6753 166.757 21.6753L181.011 21.6431L174.912 11.2086C174.457 9.71488 175.563 8.90247 175.563 8.90247C176.673 8.02344 177.814 9.09805 177.814 9.09805L189.328 28.8924C189.785 29.8015 189.231 30.7772 189.231 30.7772C188.58 31.4263 188.284 31.5252 188.284 31.5252C187.991 31.6219 187.633 31.6864 187.633 31.6864V31.6842ZM130.515 31.523C129.832 31.4263 129.34 30.8396 129.34 30.8396L129.079 30.2227L130.873 9.84383C131.46 8.05568 133.157 8.64027 133.157 8.64027L144.638 20.8607L158.078 8.38021L158.339 8.31573H159.219L159.937 8.73913C160.329 9.25924 160.359 9.84383 160.359 9.84383L158.598 29.8961C158.207 31.4886 156.575 31.5209 156.575 31.5209C155.892 31.4242 155.402 30.8374 155.402 30.8374L155.109 30.0573L156.513 14.3271L144.867 24.955C144.377 25.2473 143.92 24.9872 143.92 24.9872L133.872 14.4904L133.808 14.5872L132.439 30.2206C132.113 30.9019 131.395 31.3575 131.395 31.3575L130.513 31.5209L130.515 31.523ZM124.221 31.523C123.896 31.4263 123.568 31.263 123.568 31.263C123.242 31.0996 123.012 30.7428 123.012 30.7428L122.783 30.2227L124.579 9.84383L125.069 9.0959C125.362 8.83585 125.754 8.70689 125.754 8.70689C126.145 8.57579 126.472 8.57579 126.472 8.57579C126.83 8.64242 127.091 8.77137 127.091 8.77137C127.352 8.90247 127.613 9.25924 127.613 9.25924L127.939 9.94269L126.145 30.1583C125.687 31.4263 124.221 31.523 124.221 31.523ZM119.098 31.6842C118.773 31.6197 118.447 31.4886 118.447 31.4886C118.121 31.3575 117.86 31.0996 117.86 31.0996L114.436 24.9894H98.8125L94.181 31.2307C92.5487 32.1398 91.7337 31.0029 91.7337 31.0029C91.4728 30.6784 91.4383 30.3216 91.4383 30.3216C91.4059 29.9648 91.5051 29.5414 91.5051 29.5414L96.5614 22.5199C97.0509 21.4797 98.226 21.6753 98.226 21.6753L112.481 21.6431L106.381 11.2086C105.924 9.71488 107.032 8.90247 107.032 8.90247C108.142 8.02344 109.283 9.09805 109.283 9.09805L120.797 28.8924C121.254 29.8015 120.698 30.7772 120.698 30.7772C120.047 31.4263 119.754 31.5252 119.754 31.5252C119.46 31.6219 119.1 31.6864 119.1 31.6864L119.098 31.6842ZM85.858 27.4911C86.5092 26.971 86.8693 26.3864 86.8693 26.3864C87.2272 25.8018 87.3587 25.0861 87.3587 25.0861L88.2406 14.8472C88.2406 14.3271 88.0768 13.807 88.0768 13.807C87.915 13.2869 87.4256 12.8635 87.4256 12.8635C87.0008 12.5067 86.5113 12.3111 86.5113 12.3111C86.0219 12.1156 85.5001 11.9845 85.5001 11.9845H65.829L64.4275 28.0735H84.2603L85.858 27.4889V27.4911Z" fill="#2B2A29"/>
<path d="M36.7418 0V6.79799L0 14.9156V14.3546L36.7418 0ZM36.7418 17.9503V11.1523L0 20.538V21.0882L36.7418 17.9503ZM36.7418 29.6034V22.8054L0 25.4833V26.0357L36.7418 29.6034ZM36.7418 39.9991V33.2012L0 30.3577V30.9079L36.7418 39.9991Z" fill="#2B2A29"/>
<path d="M48.6527 16.5021L36.7418 6.79841V0.000427246L48.6527 15.2277V16.5021ZM36.7418 17.9507L48.6527 20.0634V18.8878L36.7418 11.1506V17.9486V17.9507ZM36.7418 29.6038L48.6527 24.6369V23.4613L36.7418 22.8058V29.6038ZM36.7418 39.9996L48.6527 28.6925V27.5169L36.7418 33.2016V39.9996Z" fill="#00A0E3"/>
</g>
<defs>
<clipPath id="clip0_8_3">
<rect width="220" height="40" fill="white"/>
</clipPath>
</defs>
</svg>
