<?xml version="1.0" encoding="utf-8"?>
<!-- Generator: Adobe Illustrator 24.3.0, SVG Export Plug-In . SVG Version: 6.00 Build 0)  -->
<svg version="1.1" id="Слой_1" xmlns="http://www.w3.org/2000/svg" xmlns:xlink="http://www.w3.org/1999/xlink" x="0px" y="0px"
	 viewBox="0 0 31.8 34.9" style="enable-background:new 0 0 31.8 34.9;" xml:space="preserve">
<style type="text/css">
	.st0{fill:#456F8F;}
</style>
<path class="st0" d="M14,8.2L3.8,11.5v19.7H28V10.2L14,14V8.2z M23,21.4h3.8v-3.8H23V21.4z M17,21.4h3.8v-3.8H17V21.4z M11,21.4h3.8
	v-3.8H11V21.4z M23,28h3.8v-3.8H23V28z M17,28h3.8v-3.8H17V28z M11,28h3.8v-3.8H11V28z M5,28h3.8v-3.8H5.1L5,28z M5,21.5h3.8v-3.8
	H5.1L5,21.5z M10.3,0v5.4L17.8,3v6.1l3.8-1V0h3.8v7.1l6.5-1.8v29.6H0V8.7l1.3-0.4l5.2-1.7V0H10.3z"/>
</svg>
